# Blender v2.82 (sub 7) OBJ File: 'cube.blend'
# www.blender.org
mtllib stone.mtl
o Cube_Finished_Cube.001
v 1.0 -1.0 -1.0
v 1.0 -1.0 1.0
v -1.0 -1.0 1.0
v -1.0 -1.0 -1.0
v 1.0 1.0 -1.0
v 1.0 1.0 1.0
v -1.0 1.0 1.0
v -1.0 1.0 -1.0

vt 0.0 1.0
vt 0.5 1.0
vt 0.0 0.5
vt 0.5 0.5

vt 0.5 1.0
vt 1.0 1.0
vt 0.5 0.5
vt 1.0 0.5

vt 0.0 0.5
vt 0.5 0.5
vt 0.0 0.0
vt 0.5 0.0

vn 0 -1 0
vn 0 1 0
vn 1 0 0
vn 0 0 1
vn -1 0 0
vn 0 0 -1

usemtl Material.001

f 1/8/1 2/7/1 3/5/1
f 1/8/1 3/5/1 4/6/1

f 5/2/2 8/1/2 7/3/2
f 5/2/2 7/3/2 6/4/2

f 1/12/3 5/10/3 6/9/3
f 1/12/3 6/9/3 2/11/3

f 2/12/4 6/10/4 7/9/4
f 2/12/4 7/9/4 3/11/4

f 3/12/5 7/10/5 8/9/5
f 3/12/5 8/9/5 4/11/5

f 4/12/6 8/10/6 5/9/6
f 4/12/6 5/9/6 1/11/6
